<svg width="80" height="80" viewBox="0 0 80 80" fill="none" xmlns="http://www.w3.org/2000/svg">
<path fill-rule="evenodd" clip-rule="evenodd" d="M30 0.8C30 0.358172 30.3582 0 30.8 0H34.2C34.6418 0 35 0.358172 35 0.8V5H30V0.8ZM30 10V5H25.8C25.3582 5 25 5.35817 25 5.8V10H20.8C20.3582 10 20 9.64183 20 9.2V5.8C20 5.35817 19.6418 5 19.2 5H15.8C15.3582 5 15 5.35817 15 5.8V10V14.2C15 14.6418 14.6418 15 14.2 15H10V10.8C10 10.3582 9.64183 10 9.2 10H5.8C5.35817 10 5 10.3582 5 10.8V14.2C5 14.6418 5.35817 15 5.8 15H10V19.2C10 19.6418 10.3582 20 10.8 20H14.2C14.6418 20 15 20.3582 15 20.8V24.2C15 24.6418 14.6418 25 14.2 25H10.8C10.3582 25 10 25.3582 10 25.8V30H5V25.8C5 25.3582 4.64183 25 4.2 25H0.8C0.358172 25 0 25.3582 0 25.8V29.2C0 29.6418 0.358172 30 0.8 30H5V35V40H0.8C0.358172 40 0 40.3582 0 40.8V44.2C0 44.6418 0.358172 45 0.8 45H5V49.2C5 49.6418 5.35817 50 5.8 50H10H14.2C14.6418 50 15 50.3582 15 50.8V54.2C15 54.6418 14.6418 55 14.2 55H10.8C10.3582 55 10 55.3582 10 55.8V59.2C10 59.6418 9.64183 60 9.2 60H5V55.8C5 55.3582 4.64183 55 4.2 55H0.8C0.358172 55 0 55.3582 0 55.8V59.2C0 59.6418 0.358172 60 0.8 60H5V64.2C5 64.6418 5.35817 65 5.8 65H10H14.2C14.6418 65 15 65.3582 15 65.8V69.2C15 69.6418 14.6418 70 14.2 70H10.8C10.3582 70 10 70.3582 10 70.8V74.2C10 74.6418 10.3582 75 10.8 75H15H19.2C19.6418 75 20 75.3582 20 75.8V79.2C20 79.6418 20.3582 80 20.8 80H24.2C24.6418 80 25 79.6418 25 79.2V75V70H29.2C29.6418 70 30 70.3582 30 70.8V74.2C30 74.6418 30.3582 75 30.8 75H34.2C34.6418 75 35 75.3582 35 75.8V79.2C35 79.6418 35.3582 80 35.8 80H39.2C39.6418 80 40 79.6418 40 79.2V75V70H45V74.2C45 74.6418 45.3582 75 45.8 75H50V79.2C50 79.6418 50.3582 80 50.8 80H54.2C54.6418 80 55 79.6418 55 79.2V75H59.2C59.6418 75 60 74.6418 60 74.2V70.8C60 70.3582 60.3582 70 60.8 70H64.2C64.6418 70 65 69.6418 65 69.2V65.8C65 65.3582 65.3582 65 65.8 65H70V70V74.2C70 74.6418 70.3582 75 70.8 75H74.2C74.6418 75 75 74.6418 75 74.2V70V65.8C75 65.3582 74.6418 65 74.2 65H70V60H75H79.2C79.6418 60 80 59.6418 80 59.2V55.8C80 55.3582 79.6418 55 79.2 55H75.8C75.3582 55 75 54.6418 75 54.2V50H79.2C79.6418 50 80 49.6418 80 49.2V45.8C80 45.3582 79.6418 45 79.2 45H75.8C75.3582 45 75 45.3582 75 45.8V50H70H65.8C65.3582 50 65 49.6418 65 49.2V45.8C65 45.3582 65.3582 45 65.8 45H69.2C69.6418 45 70 44.6418 70 44.2V40H74.2C74.6418 40 75 39.6418 75 39.2V35V30H79.2C79.6418 30 80 29.6418 80 29.2V25.8C80 25.3582 79.6418 25 79.2 25H75V20.8C75 20.3582 74.6418 20 74.2 20H70V15.8C70 15.3582 69.6418 15 69.2 15H65.8C65.3582 15 65 14.6418 65 14.2V10H69.2C69.6418 10 70 9.64183 70 9.2V5.8C70 5.35817 69.6418 5 69.2 5H65.8C65.3582 5 65 5.35817 65 5.8V10H60V5.8C60 5.35817 59.6418 5 59.2 5H55V0.8C55 0.358172 54.6418 0 54.2 0H50.8C50.3582 0 50 0.358172 50 0.8V4.2C50 4.64183 50.3582 5 50.8 5H55V10H50H45V5.8C45 5.35817 44.6418 5 44.2 5H40H35V9.2C35 9.64183 34.6418 10 34.2 10H30ZM45 10V14.2C45 14.6418 44.6418 15 44.2 15H40.8C40.3582 15 40 14.6418 40 14.2V10.8C40 10.3582 40.3582 10 40.8 10H45ZM60 14.2C60 14.6418 59.6418 15 59.2 15H55.8C55.3582 15 55 14.6418 55 14.2V10H60V14.2ZM70 25V29.2C70 29.6418 70.3582 30 70.8 30H75V25H70ZM70 25V20H65.8C65.3582 20 65 20.3582 65 20.8V24.2C65 24.6418 65.3582 25 65.8 25H70ZM70 40H65.8C65.3582 40 65 39.6418 65 39.2V35.8C65 35.3582 65.3582 35 65.8 35H69.2C69.6418 35 70 35.3582 70 35.8V40ZM70 60H65.8C65.3582 60 65 59.6418 65 59.2V55.8C65 55.3582 65.3582 55 65.8 55H69.2C69.6418 55 70 55.3582 70 55.8V60ZM50 70V65.8C50 65.3582 49.6418 65 49.2 65H45.8C45.3582 65 45 65.3582 45 65.8V70H50ZM50 70H54.2C54.6418 70 55 70.3582 55 70.8V75H50V70ZM40 70V65.8C40 65.3582 39.6418 65 39.2 65H35.8C35.3582 65 35 65.3582 35 65.8V69.2C35 69.6418 35.3582 70 35.8 70H40ZM25 70V65.8C25 65.3582 24.6418 65 24.2 65H20.8C20.3582 65 20 65.3582 20 65.8V69.2C20 69.6418 20.3582 70 20.8 70H25ZM5 45H9.2C9.64183 45 10 44.6418 10 44.2V40.8C10 40.3582 9.64183 40 9.2 40H5V45ZM10 30H14.2C14.6418 30 15 30.3582 15 30.8V34.2C15 34.6418 14.6418 35 14.2 35H10.8C10.3582 35 10 34.6418 10 34.2V30ZM30 10V14.2C30 14.6418 29.6418 15 29.2 15H25.8C25.3582 15 25 14.6418 25 14.2V10H30Z" fill="#00293F"/>
<circle cx="30.0229" cy="43.7751" r="4.5" fill="#FFDD00"/>
<circle cx="49.5103" cy="43.7751" r="4.5" fill="#FFDD00"/>
<rect x="28.9788" y="32.075" width="5.7" height="2.25" rx="0.8" transform="rotate(-90 28.9788 32.075)" fill="#FFDD00"/>
<rect x="27.1794" y="27.4248" width="5.55" height="5.85" rx="0.8" transform="rotate(-90 27.1794 27.4248)" fill="#FFDD00"/>
<rect x="48.4788" y="32.075" width="5.7" height="2.25" rx="0.8" transform="rotate(-90 48.4788 32.075)" fill="#FFDD00"/>
<rect x="46.6794" y="27.4253" width="5.55" height="5.85" rx="0.8" transform="rotate(-90 46.6794 27.4253)" fill="#FFDD00"/>
<rect x="34.9771" y="48.5752" width="1.5" height="1.95" rx="0.75" fill="#FFDD00"/>
<rect x="37.6743" y="49.0251" width="1.5" height="1.95" rx="0.75" fill="#FFDD00"/>
<rect x="40.375" y="49.0251" width="1.5" height="1.95" rx="0.75" fill="#FFDD00"/>
<rect x="43.0757" y="48.5752" width="1.5" height="1.95" rx="0.75" fill="#FFDD00"/>
<path fill-rule="evenodd" clip-rule="evenodd" d="M23.575 34.8243C23.575 34.7968 23.5982 34.7752 23.6257 34.7752H55.3257C55.5632 34.7752 55.9737 34.9622 55.9737 35.1998V40.8754C55.9737 41.3172 56.3319 41.6754 56.7737 41.6754H59.3737C59.8155 41.6754 60.1737 41.3172 60.1737 40.8754V31.3754C60.1737 30.9335 59.8155 30.5754 59.3737 30.5754H56.7737C56.4131 30.5754 55.6863 30.5752 55.3257 30.5752H23.6257C23.3517 30.5752 23.049 30.5755 22.775 30.5755H20.175C19.7332 30.5755 19.375 30.9336 19.375 31.3755V40.8755C19.375 41.3173 19.7332 41.6755 20.175 41.6755H22.775C23.2168 41.6755 23.575 41.3173 23.575 40.8755V34.8243Z" fill="#FFDD00"/>
<path fill-rule="evenodd" clip-rule="evenodd" d="M19.375 56.1753C19.375 56.6172 19.7332 56.9753 20.175 56.9753H22.775C23.049 56.9753 23.3517 56.9751 23.6257 56.9751H55.3257C55.6863 56.9751 56.4131 56.9749 56.7737 56.9749H59.3737C59.8155 56.9749 60.1737 56.6168 60.1737 56.1749V46.6749C60.1737 46.2331 59.8155 45.8749 59.3737 45.8749H56.7737C56.3319 45.8749 55.9737 46.2331 55.9737 46.6749V52.3505C55.9737 52.5881 55.5632 52.7751 55.3257 52.7751H23.6257C23.5982 52.7751 23.575 52.7535 23.575 52.726V46.6753C23.575 46.2335 23.2168 45.8753 22.775 45.8753H20.175C19.7332 45.8753 19.375 46.2335 19.375 46.6753V56.1753Z" fill="#FFDD00"/>
</svg>
