<svg width="1440" height="246" viewBox="0 0 1440 246" fill="none" xmlns="http://www.w3.org/2000/svg">
<g opacity="0.15">
<path d="M14.5284 0.991935C14.5284 0.444105 14.9716 0 15.5183 0C16.0651 0 16.5083 0.444105 16.5083 0.991935V30.75C16.5083 31.2978 16.0651 31.7419 15.5183 31.7419C14.9716 31.7419 14.5284 31.2978 14.5284 30.75V0.991935Z" fill="white" fill-opacity="0.6"/>
<path d="M0.989957 16.4967C0.443219 16.4967 0 16.0526 0 15.5048C0 14.957 0.443219 14.5129 0.989957 14.5129H30.6887C31.2354 14.5129 31.6786 14.957 31.6786 15.5048C31.6786 16.0526 31.2354 16.4967 30.6887 16.4967H0.989957Z" fill="white" fill-opacity="0.6"/>
<path d="M84.9445 0.991935C84.9445 0.444105 85.3877 0 85.9344 0C86.4812 0 86.9244 0.444105 86.9244 0.991935V30.75C86.9244 31.2978 86.4812 31.7419 85.9344 31.7419C85.3877 31.7419 84.9445 31.2978 84.9445 30.75V0.991935Z" fill="white" fill-opacity="0.6"/>
<path d="M71.406 16.4967C70.8593 16.4967 70.4161 16.0526 70.4161 15.5048C70.4161 14.957 70.8593 14.5129 71.406 14.5129H101.105C101.651 14.5129 102.095 14.957 102.095 15.5048C102.095 16.0526 101.651 16.4967 101.105 16.4967H71.406Z" fill="white" fill-opacity="0.6"/>
<path d="M155.361 0.991935C155.361 0.444105 155.804 0 156.35 0C156.897 0 157.34 0.444105 157.34 0.991935V30.75C157.34 31.2978 156.897 31.7419 156.35 31.7419C155.804 31.7419 155.361 31.2978 155.361 30.75V0.991935Z" fill="white" fill-opacity="0.6"/>
<path d="M141.822 16.4967C141.275 16.4967 140.832 16.0526 140.832 15.5048C140.832 14.957 141.275 14.5129 141.822 14.5129H171.521C172.068 14.5129 172.511 14.957 172.511 15.5048C172.511 16.0526 172.068 16.4967 171.521 16.4967H141.822Z" fill="white" fill-opacity="0.6"/>
<path d="M225.777 0.991935C225.777 0.444105 226.22 0 226.767 0C227.313 0 227.757 0.444105 227.757 0.991935V30.75C227.757 31.2978 227.313 31.7419 226.767 31.7419C226.22 31.7419 225.777 31.2978 225.777 30.75V0.991935Z" fill="white" fill-opacity="0.6"/>
<path d="M212.238 16.4967C211.691 16.4967 211.248 16.0526 211.248 15.5048C211.248 14.957 211.691 14.5129 212.238 14.5129H241.937C242.484 14.5129 242.927 14.957 242.927 15.5048C242.927 16.0526 242.484 16.4967 241.937 16.4967H212.238Z" fill="white" fill-opacity="0.6"/>
<path d="M296.193 0.991935C296.193 0.444105 296.636 0 297.183 0C297.729 0 298.173 0.444105 298.173 0.991935V30.75C298.173 31.2978 297.729 31.7419 297.183 31.7419C296.636 31.7419 296.193 31.2978 296.193 30.75V0.991935Z" fill="white" fill-opacity="0.6"/>
<path d="M282.654 16.4967C282.107 16.4967 281.664 16.0526 281.664 15.5048C281.664 14.957 282.107 14.5129 282.654 14.5129H312.353C312.9 14.5129 313.343 14.957 313.343 15.5048C313.343 16.0526 312.9 16.4967 312.353 16.4967H282.654Z" fill="white" fill-opacity="0.6"/>
<path d="M366.609 0.991935C366.609 0.444105 367.052 0 367.599 0C368.145 0 368.589 0.444105 368.589 0.991935V30.75C368.589 31.2978 368.145 31.7419 367.599 31.7419C367.052 31.7419 366.609 31.2978 366.609 30.75V0.991935Z" fill="white" fill-opacity="0.6"/>
<path d="M353.07 16.4967C352.524 16.4967 352.08 16.0526 352.08 15.5048C352.08 14.957 352.524 14.5129 353.07 14.5129H382.769C383.316 14.5129 383.759 14.957 383.759 15.5048C383.759 16.0526 383.316 16.4967 382.769 16.4967H353.07Z" fill="white" fill-opacity="0.6"/>
<path d="M437.025 0.991935C437.025 0.444105 437.468 0 438.015 0C438.561 0 439.005 0.444105 439.005 0.991935V30.75C439.005 31.2978 438.561 31.7419 438.015 31.7419C437.468 31.7419 437.025 31.2978 437.025 30.75V0.991935Z" fill="white" fill-opacity="0.6"/>
<path d="M423.486 16.4967C422.94 16.4967 422.496 16.0526 422.496 15.5048C422.496 14.957 422.94 14.5129 423.486 14.5129H453.185C453.732 14.5129 454.175 14.957 454.175 15.5048C454.175 16.0526 453.732 16.4967 453.185 16.4967H423.486Z" fill="white" fill-opacity="0.6"/>
<path d="M507.441 0.991935C507.441 0.444105 507.884 0 508.431 0C508.978 0 509.421 0.444105 509.421 0.991935V30.75C509.421 31.2978 508.978 31.7419 508.431 31.7419C507.884 31.7419 507.441 31.2978 507.441 30.75V0.991935Z" fill="white" fill-opacity="0.2"/>
<path d="M493.902 16.4967C493.356 16.4967 492.912 16.0526 492.912 15.5048C492.912 14.957 493.356 14.5129 493.902 14.5129H523.601C524.148 14.5129 524.591 14.957 524.591 15.5048C524.591 16.0526 524.148 16.4967 523.601 16.4967H493.902Z" fill="white" fill-opacity="0.2"/>
<path d="M577.857 0.991935C577.857 0.444105 578.3 0 578.847 0C579.394 0 579.837 0.444105 579.837 0.991935V30.75C579.837 31.2978 579.394 31.7419 578.847 31.7419C578.3 31.7419 577.857 31.2978 577.857 30.75V0.991935Z" fill="white" fill-opacity="0.6"/>
<path d="M564.318 16.4967C563.772 16.4967 563.329 16.0526 563.329 15.5048C563.329 14.957 563.772 14.5129 564.318 14.5129H594.017C594.564 14.5129 595.007 14.957 595.007 15.5048C595.007 16.0526 594.564 16.4967 594.017 16.4967H564.318Z" fill="white" fill-opacity="0.6"/>
<path d="M648.273 0.991935C648.273 0.444105 648.716 0 649.263 0C649.81 0 650.253 0.444105 650.253 0.991935V30.75C650.253 31.2978 649.81 31.7419 649.263 31.7419C648.716 31.7419 648.273 31.2978 648.273 30.75V0.991935Z" fill="white" fill-opacity="0.6"/>
<path d="M634.735 16.4967C634.188 16.4967 633.745 16.0526 633.745 15.5048C633.745 14.957 634.188 14.5129 634.735 14.5129H664.433C664.98 14.5129 665.423 14.957 665.423 15.5048C665.423 16.0526 664.98 16.4967 664.433 16.4967H634.735Z" fill="white" fill-opacity="0.6"/>
<path d="M718.689 0.991935C718.689 0.444105 719.132 0 719.679 0C720.226 0 720.669 0.444105 720.669 0.991935V30.75C720.669 31.2978 720.226 31.7419 719.679 31.7419C719.132 31.7419 718.689 31.2978 718.689 30.75V0.991935Z" fill="white" fill-opacity="0.6"/>
<path d="M705.151 16.4967C704.604 16.4967 704.161 16.0526 704.161 15.5048C704.161 14.957 704.604 14.5129 705.151 14.5129H734.849C735.396 14.5129 735.839 14.957 735.839 15.5048C735.839 16.0526 735.396 16.4967 734.849 16.4967H705.151Z" fill="white" fill-opacity="0.6"/>
<path d="M789.105 0.991935C789.105 0.444105 789.548 0 790.095 0C790.642 0 791.085 0.444105 791.085 0.991935V30.75C791.085 31.2978 790.642 31.7419 790.095 31.7419C789.548 31.7419 789.105 31.2978 789.105 30.75V0.991935Z" fill="white" fill-opacity="0.6"/>
<path d="M775.567 16.4967C775.02 16.4967 774.577 16.0526 774.577 15.5048C774.577 14.957 775.02 14.5129 775.567 14.5129H805.265C805.812 14.5129 806.255 14.957 806.255 15.5048C806.255 16.0526 805.812 16.4967 805.265 16.4967H775.567Z" fill="white" fill-opacity="0.6"/>
<path d="M858.852 1.98387C858.852 0.888209 859.739 0 860.832 0C861.926 0 862.812 0.888209 862.812 1.98387V29.7581C862.812 30.8537 861.926 31.7419 860.832 31.7419C859.739 31.7419 858.852 30.8537 858.852 29.7581V1.98387Z" fill="white" fill-opacity="0.8"/>
<path d="M846.973 17.8548C845.879 17.8548 844.993 16.9666 844.993 15.871C844.993 14.7753 845.879 13.8871 846.973 13.8871H874.692C875.785 13.8871 876.671 14.7753 876.671 15.871C876.671 16.9666 875.785 17.8548 874.692 17.8548H846.973Z" fill="white" fill-opacity="0.8"/>
<path d="M929.937 0.991935C929.937 0.444105 930.38 0 930.927 0C931.474 0 931.917 0.444105 931.917 0.991935V30.75C931.917 31.2978 931.474 31.7419 930.927 31.7419C930.38 31.7419 929.937 31.2978 929.937 30.75V0.991935Z" fill="white" fill-opacity="0.6"/>
<path d="M916.399 16.4967C915.852 16.4967 915.409 16.0526 915.409 15.5048C915.409 14.957 915.852 14.5129 916.399 14.5129H946.098C946.644 14.5129 947.088 14.957 947.088 15.5048C947.088 16.0526 946.644 16.4967 946.098 16.4967H916.399Z" fill="white" fill-opacity="0.6"/>
<path d="M1000.35 0.991935C1000.35 0.444105 1000.8 0 1001.34 0C1001.89 0 1002.33 0.444105 1002.33 0.991935V30.75C1002.33 31.2978 1001.89 31.7419 1001.34 31.7419C1000.8 31.7419 1000.35 31.2978 1000.35 30.75V0.991935Z" fill="white" fill-opacity="0.6"/>
<path d="M986.815 16.4967C986.268 16.4967 985.825 16.0526 985.825 15.5048C985.825 14.957 986.268 14.5129 986.815 14.5129H1016.51C1017.06 14.5129 1017.5 14.957 1017.5 15.5048C1017.5 16.0526 1017.06 16.4967 1016.51 16.4967H986.815Z" fill="white" fill-opacity="0.6"/>
<path d="M1070.77 0.991935C1070.77 0.444105 1071.21 0 1071.76 0C1072.31 0 1072.75 0.444105 1072.75 0.991935V30.75C1072.75 31.2978 1072.31 31.7419 1071.76 31.7419C1071.21 31.7419 1070.77 31.2978 1070.77 30.75V0.991935Z" fill="white" fill-opacity="0.6"/>
<path d="M1057.23 16.4967C1056.68 16.4967 1056.24 16.0526 1056.24 15.5048C1056.24 14.957 1056.68 14.5129 1057.23 14.5129H1086.93C1087.48 14.5129 1087.92 14.957 1087.92 15.5048C1087.92 16.0526 1087.48 16.4967 1086.93 16.4967H1057.23Z" fill="white" fill-opacity="0.6"/>
<path d="M1141.19 0.991935C1141.19 0.444105 1141.63 0 1142.18 0C1142.72 0 1143.17 0.444105 1143.17 0.991935V30.75C1143.17 31.2978 1142.72 31.7419 1142.18 31.7419C1141.63 31.7419 1141.19 31.2978 1141.19 30.75V0.991935Z" fill="white" fill-opacity="0.6"/>
<path d="M1127.65 16.4967C1127.1 16.4967 1126.66 16.0526 1126.66 15.5048C1126.66 14.957 1127.1 14.5129 1127.65 14.5129H1157.35C1157.89 14.5129 1158.34 14.957 1158.34 15.5048C1158.34 16.0526 1157.89 16.4967 1157.35 16.4967H1127.65Z" fill="white" fill-opacity="0.6"/>
<path d="M1211.6 0.991935C1211.6 0.444105 1212.04 0 1212.59 0C1213.14 0 1213.58 0.444105 1213.58 0.991935V30.75C1213.58 31.2978 1213.14 31.7419 1212.59 31.7419C1212.04 31.7419 1211.6 31.2978 1211.6 30.75V0.991935Z" fill="white" fill-opacity="0.6"/>
<path d="M1198.06 16.4967C1197.52 16.4967 1197.07 16.0526 1197.07 15.5048C1197.07 14.957 1197.52 14.5129 1198.06 14.5129H1227.76C1228.31 14.5129 1228.75 14.957 1228.75 15.5048C1228.75 16.0526 1228.31 16.4967 1227.76 16.4967H1198.06Z" fill="white" fill-opacity="0.6"/>
<path d="M1282.02 0.991935C1282.02 0.444105 1282.46 0 1283.01 0C1283.55 0 1284 0.444105 1284 0.991935V30.75C1284 31.2978 1283.55 31.7419 1283.01 31.7419C1282.46 31.7419 1282.02 31.2978 1282.02 30.75V0.991935Z" fill="white" fill-opacity="0.6"/>
<path d="M1268.48 16.4967C1267.93 16.4967 1267.49 16.0526 1267.49 15.5048C1267.49 14.957 1267.93 14.5129 1268.48 14.5129H1298.18C1298.72 14.5129 1299.17 14.957 1299.17 15.5048C1299.17 16.0526 1298.72 16.4967 1298.18 16.4967H1268.48Z" fill="white" fill-opacity="0.6"/>
<path d="M1352.43 0.991935C1352.43 0.444105 1352.88 0 1353.42 0C1353.97 0 1354.41 0.444105 1354.41 0.991935V30.75C1354.41 31.2978 1353.97 31.7419 1353.42 31.7419C1352.88 31.7419 1352.43 31.2978 1352.43 30.75V0.991935Z" fill="white" fill-opacity="0.6"/>
<path d="M1338.9 16.4967C1338.35 16.4967 1337.91 16.0526 1337.91 15.5048C1337.91 14.957 1338.35 14.5129 1338.9 14.5129H1368.59C1369.14 14.5129 1369.58 14.957 1369.58 15.5048C1369.58 16.0526 1369.14 16.4967 1368.59 16.4967H1338.9Z" fill="white" fill-opacity="0.6"/>
<path d="M1422.85 0.991935C1422.85 0.444105 1423.29 0 1423.84 0C1424.39 0 1424.83 0.444105 1424.83 0.991935V30.75C1424.83 31.2978 1424.39 31.7419 1423.84 31.7419C1423.29 31.7419 1422.85 31.2978 1422.85 30.75V0.991935Z" fill="white" fill-opacity="0.6"/>
<path d="M1409.31 16.4967C1408.76 16.4967 1408.32 16.0526 1408.32 15.5048C1408.32 14.957 1408.76 14.5129 1409.31 14.5129H1439.01C1439.56 14.5129 1440 14.957 1440 15.5048C1440 16.0526 1439.56 16.4967 1439.01 16.4967H1409.31Z" fill="white" fill-opacity="0.6"/>
<path d="M14.5284 72.4113C14.5284 71.8635 14.9716 71.4194 15.5183 71.4194C16.0651 71.4194 16.5083 71.8635 16.5083 72.4113V102.169C16.5083 102.717 16.0651 103.161 15.5183 103.161C14.9716 103.161 14.5284 102.717 14.5284 102.169V72.4113Z" fill="white" fill-opacity="0.6"/>
<path d="M0.989957 87.9161C0.443219 87.9161 0 87.472 0 86.9242C0 86.3763 0.443219 85.9322 0.989957 85.9322H30.6887C31.2354 85.9322 31.6786 86.3763 31.6786 86.9242C31.6786 87.472 31.2354 87.9161 30.6887 87.9161H0.989957Z" fill="white" fill-opacity="0.6"/>
<path d="M84.9445 72.4113C84.9445 71.8635 85.3877 71.4194 85.9344 71.4194C86.4812 71.4194 86.9244 71.8635 86.9244 72.4113V102.169C86.9244 102.717 86.4812 103.161 85.9344 103.161C85.3877 103.161 84.9445 102.717 84.9445 102.169V72.4113Z" fill="white" fill-opacity="0.6"/>
<path d="M71.406 87.9161C70.8593 87.9161 70.4161 87.472 70.4161 86.9242C70.4161 86.3763 70.8593 85.9322 71.406 85.9322H101.105C101.651 85.9322 102.095 86.3763 102.095 86.9242C102.095 87.472 101.651 87.9161 101.105 87.9161H71.406Z" fill="white" fill-opacity="0.6"/>
<path d="M155.361 72.4113C155.361 71.8635 155.804 71.4194 156.35 71.4194C156.897 71.4194 157.34 71.8635 157.34 72.4113V102.169C157.34 102.717 156.897 103.161 156.35 103.161C155.804 103.161 155.361 102.717 155.361 102.169V72.4113Z" fill="white" fill-opacity="0.6"/>
<path d="M141.822 87.9161C141.275 87.9161 140.832 87.472 140.832 86.9242C140.832 86.3763 141.275 85.9322 141.822 85.9322H171.521C172.068 85.9322 172.511 86.3763 172.511 86.9242C172.511 87.472 172.068 87.9161 171.521 87.9161H141.822Z" fill="white" fill-opacity="0.6"/>
<path d="M225.777 72.4113C225.777 71.8635 226.22 71.4194 226.767 71.4194C227.313 71.4194 227.757 71.8635 227.757 72.4113V102.169C227.757 102.717 227.313 103.161 226.767 103.161C226.22 103.161 225.777 102.717 225.777 102.169V72.4113Z" fill="white" fill-opacity="0.6"/>
<path d="M212.238 87.9161C211.691 87.9161 211.248 87.472 211.248 86.9242C211.248 86.3763 211.691 85.9322 212.238 85.9322H241.937C242.484 85.9322 242.927 86.3763 242.927 86.9242C242.927 87.472 242.484 87.9161 241.937 87.9161H212.238Z" fill="white" fill-opacity="0.6"/>
<path d="M296.193 72.4113C296.193 71.8635 296.636 71.4194 297.183 71.4194C297.729 71.4194 298.173 71.8635 298.173 72.4113V102.169C298.173 102.717 297.729 103.161 297.183 103.161C296.636 103.161 296.193 102.717 296.193 102.169V72.4113Z" fill="white" fill-opacity="0.6"/>
<path d="M282.654 87.9161C282.107 87.9161 281.664 87.472 281.664 86.9242C281.664 86.3763 282.107 85.9322 282.654 85.9322H312.353C312.9 85.9322 313.343 86.3763 313.343 86.9242C313.343 87.472 312.9 87.9161 312.353 87.9161H282.654Z" fill="white" fill-opacity="0.6"/>
<path d="M366.609 72.4113C366.609 71.8635 367.052 71.4194 367.599 71.4194C368.145 71.4194 368.589 71.8635 368.589 72.4113V102.169C368.589 102.717 368.145 103.161 367.599 103.161C367.052 103.161 366.609 102.717 366.609 102.169V72.4113Z" fill="white" fill-opacity="0.6"/>
<path d="M353.07 87.9161C352.524 87.9161 352.08 87.472 352.08 86.9242C352.08 86.3763 352.524 85.9322 353.07 85.9322H382.769C383.316 85.9322 383.759 86.3763 383.759 86.9242C383.759 87.472 383.316 87.9161 382.769 87.9161H353.07Z" fill="white" fill-opacity="0.6"/>
<path d="M437.025 72.4113C437.025 71.8635 437.468 71.4194 438.015 71.4194C438.561 71.4194 439.005 71.8635 439.005 72.4113V102.169C439.005 102.717 438.561 103.161 438.015 103.161C437.468 103.161 437.025 102.717 437.025 102.169V72.4113Z" fill="white" fill-opacity="0.6"/>
<path d="M423.486 87.9161C422.94 87.9161 422.496 87.472 422.496 86.9242C422.496 86.3763 422.94 85.9322 423.486 85.9322H453.185C453.732 85.9322 454.175 86.3763 454.175 86.9242C454.175 87.472 453.732 87.9161 453.185 87.9161H423.486Z" fill="white" fill-opacity="0.6"/>
<path d="M507.441 72.4113C507.441 71.8635 507.884 71.4194 508.431 71.4194C508.978 71.4194 509.421 71.8635 509.421 72.4113V102.169C509.421 102.717 508.978 103.161 508.431 103.161C507.884 103.161 507.441 102.717 507.441 102.169V72.4113Z" fill="white" fill-opacity="0.6"/>
<path d="M493.902 87.9161C493.356 87.9161 492.912 87.472 492.912 86.9242C492.912 86.3763 493.356 85.9322 493.902 85.9322H523.601C524.148 85.9322 524.591 86.3763 524.591 86.9242C524.591 87.472 524.148 87.9161 523.601 87.9161H493.902Z" fill="white" fill-opacity="0.6"/>
<path d="M577.857 72.4113C577.857 71.8635 578.3 71.4194 578.847 71.4194C579.394 71.4194 579.837 71.8635 579.837 72.4113V102.169C579.837 102.717 579.394 103.161 578.847 103.161C578.3 103.161 577.857 102.717 577.857 102.169V72.4113Z" fill="white" fill-opacity="0.6"/>
<path d="M564.318 87.9161C563.772 87.9161 563.329 87.472 563.329 86.9242C563.329 86.3763 563.772 85.9322 564.318 85.9322H594.017C594.564 85.9322 595.007 86.3763 595.007 86.9242C595.007 87.472 594.564 87.9161 594.017 87.9161H564.318Z" fill="white" fill-opacity="0.6"/>
<path d="M648.273 72.4113C648.273 71.8635 648.716 71.4194 649.263 71.4194C649.81 71.4194 650.253 71.8635 650.253 72.4113V102.169C650.253 102.717 649.81 103.161 649.263 103.161C648.716 103.161 648.273 102.717 648.273 102.169V72.4113Z" fill="white" fill-opacity="0.6"/>
<path d="M634.735 87.9161C634.188 87.9161 633.745 87.472 633.745 86.9242C633.745 86.3763 634.188 85.9322 634.735 85.9322H664.433C664.98 85.9322 665.423 86.3763 665.423 86.9242C665.423 87.472 664.98 87.9161 664.433 87.9161H634.735Z" fill="white" fill-opacity="0.6"/>
<path d="M718.689 72.4113C718.689 71.8635 719.132 71.4194 719.679 71.4194C720.226 71.4194 720.669 71.8635 720.669 72.4113V102.169C720.669 102.717 720.226 103.161 719.679 103.161C719.132 103.161 718.689 102.717 718.689 102.169V72.4113Z" fill="white" fill-opacity="0.6"/>
<path d="M705.151 87.9161C704.604 87.9161 704.161 87.472 704.161 86.9242C704.161 86.3763 704.604 85.9322 705.151 85.9322H734.849C735.396 85.9322 735.839 86.3763 735.839 86.9242C735.839 87.472 735.396 87.9161 734.849 87.9161H705.151Z" fill="white" fill-opacity="0.6"/>
<path d="M789.105 72.4113C789.105 71.8635 789.548 71.4194 790.095 71.4194C790.642 71.4194 791.085 71.8635 791.085 72.4113V102.169C791.085 102.717 790.642 103.161 790.095 103.161C789.548 103.161 789.105 102.717 789.105 102.169V72.4113Z" fill="white" fill-opacity="0.6"/>
<path d="M775.567 87.9161C775.02 87.9161 774.577 87.472 774.577 86.9242C774.577 86.3763 775.02 85.9322 775.567 85.9322H805.265C805.812 85.9322 806.255 86.3763 806.255 86.9242C806.255 87.472 805.812 87.9161 805.265 87.9161H775.567Z" fill="white" fill-opacity="0.6"/>
<path d="M859.521 72.4113C859.521 71.8635 859.964 71.4194 860.511 71.4194C861.058 71.4194 861.501 71.8635 861.501 72.4113V102.169C861.501 102.717 861.058 103.161 860.511 103.161C859.964 103.161 859.521 102.717 859.521 102.169V72.4113Z" fill="white" fill-opacity="0.6"/>
<path d="M845.983 87.9161C845.436 87.9161 844.993 87.472 844.993 86.9242C844.993 86.3763 845.436 85.9322 845.983 85.9322H875.681C876.228 85.9322 876.671 86.3763 876.671 86.9242C876.671 87.472 876.228 87.9161 875.681 87.9161H845.983Z" fill="white" fill-opacity="0.6"/>
<path d="M929.937 72.4113C929.937 71.8635 930.38 71.4194 930.927 71.4194C931.474 71.4194 931.917 71.8635 931.917 72.4113V102.169C931.917 102.717 931.474 103.161 930.927 103.161C930.38 103.161 929.937 102.717 929.937 102.169V72.4113Z" fill="white" fill-opacity="0.6"/>
<path d="M916.399 87.9161C915.852 87.9161 915.409 87.472 915.409 86.9242C915.409 86.3763 915.852 85.9322 916.399 85.9322H946.098C946.644 85.9322 947.088 86.3763 947.088 86.9242C947.088 87.472 946.644 87.9161 946.098 87.9161H916.399Z" fill="white" fill-opacity="0.6"/>
<path d="M1000.35 72.4113C1000.35 71.8635 1000.8 71.4194 1001.34 71.4194C1001.89 71.4194 1002.33 71.8635 1002.33 72.4113V102.169C1002.33 102.717 1001.89 103.161 1001.34 103.161C1000.8 103.161 1000.35 102.717 1000.35 102.169V72.4113Z" fill="white" fill-opacity="0.6"/>
<path d="M986.815 87.9161C986.268 87.9161 985.825 87.472 985.825 86.9242C985.825 86.3763 986.268 85.9322 986.815 85.9322H1016.51C1017.06 85.9322 1017.5 86.3763 1017.5 86.9242C1017.5 87.472 1017.06 87.9161 1016.51 87.9161H986.815Z" fill="white" fill-opacity="0.6"/>
<path d="M1070.77 72.4113C1070.77 71.8635 1071.21 71.4194 1071.76 71.4194C1072.31 71.4194 1072.75 71.8635 1072.75 72.4113V102.169C1072.75 102.717 1072.31 103.161 1071.76 103.161C1071.21 103.161 1070.77 102.717 1070.77 102.169V72.4113Z" fill="white" fill-opacity="0.2"/>
<path d="M1057.23 87.9161C1056.68 87.9161 1056.24 87.472 1056.24 86.9242C1056.24 86.3763 1056.68 85.9322 1057.23 85.9322H1086.93C1087.48 85.9322 1087.92 86.3763 1087.92 86.9242C1087.92 87.472 1087.48 87.9161 1086.93 87.9161H1057.23Z" fill="white" fill-opacity="0.2"/>
<path d="M1141.19 72.4113C1141.19 71.8635 1141.63 71.4194 1142.18 71.4194C1142.72 71.4194 1143.17 71.8635 1143.17 72.4113V102.169C1143.17 102.717 1142.72 103.161 1142.18 103.161C1141.63 103.161 1141.19 102.717 1141.19 102.169V72.4113Z" fill="white" fill-opacity="0.6"/>
<path d="M1127.65 87.9161C1127.1 87.9161 1126.66 87.472 1126.66 86.9242C1126.66 86.3763 1127.1 85.9322 1127.65 85.9322H1157.35C1157.89 85.9322 1158.34 86.3763 1158.34 86.9242C1158.34 87.472 1157.89 87.9161 1157.35 87.9161H1127.65Z" fill="white" fill-opacity="0.6"/>
<path d="M1211.6 72.4113C1211.6 71.8635 1212.04 71.4194 1212.59 71.4194C1213.14 71.4194 1213.58 71.8635 1213.58 72.4113V102.169C1213.58 102.717 1213.14 103.161 1212.59 103.161C1212.04 103.161 1211.6 102.717 1211.6 102.169V72.4113Z" fill="white" fill-opacity="0.6"/>
<path d="M1198.06 87.9161C1197.52 87.9161 1197.07 87.472 1197.07 86.9242C1197.07 86.3763 1197.52 85.9322 1198.06 85.9322H1227.76C1228.31 85.9322 1228.75 86.3763 1228.75 86.9242C1228.75 87.472 1228.31 87.9161 1227.76 87.9161H1198.06Z" fill="white" fill-opacity="0.6"/>
<path d="M1282.02 72.4113C1282.02 71.8635 1282.46 71.4194 1283.01 71.4194C1283.55 71.4194 1284 71.8635 1284 72.4113V102.169C1284 102.717 1283.55 103.161 1283.01 103.161C1282.46 103.161 1282.02 102.717 1282.02 102.169V72.4113Z" fill="white" fill-opacity="0.6"/>
<path d="M1268.48 87.9161C1267.93 87.9161 1267.49 87.472 1267.49 86.9242C1267.49 86.3763 1267.93 85.9322 1268.48 85.9322H1298.18C1298.72 85.9322 1299.17 86.3763 1299.17 86.9242C1299.17 87.472 1298.72 87.9161 1298.18 87.9161H1268.48Z" fill="white" fill-opacity="0.6"/>
<path d="M1352.43 72.4113C1352.43 71.8635 1352.88 71.4194 1353.42 71.4194C1353.97 71.4194 1354.41 71.8635 1354.41 72.4113V102.169C1354.41 102.717 1353.97 103.161 1353.42 103.161C1352.88 103.161 1352.43 102.717 1352.43 102.169V72.4113Z" fill="white" fill-opacity="0.6"/>
<path d="M1338.9 87.9161C1338.35 87.9161 1337.91 87.472 1337.91 86.9242C1337.91 86.3763 1338.35 85.9322 1338.9 85.9322H1368.59C1369.14 85.9322 1369.58 86.3763 1369.58 86.9242C1369.58 87.472 1369.14 87.9161 1368.59 87.9161H1338.9Z" fill="white" fill-opacity="0.6"/>
<path d="M1422.85 72.4113C1422.85 71.8635 1423.29 71.4194 1423.84 71.4194C1424.39 71.4194 1424.83 71.8635 1424.83 72.4113V102.169C1424.83 102.717 1424.39 103.161 1423.84 103.161C1423.29 103.161 1422.85 102.717 1422.85 102.169V72.4113Z" fill="white" fill-opacity="0.6"/>
<path d="M1409.31 87.9161C1408.76 87.9161 1408.32 87.472 1408.32 86.9242C1408.32 86.3763 1408.76 85.9322 1409.31 85.9322H1439.01C1439.56 85.9322 1440 86.3763 1440 86.9242C1440 87.472 1439.56 87.9161 1439.01 87.9161H1409.31Z" fill="white" fill-opacity="0.6"/>
<path d="M14.5284 143.831C14.5284 143.283 14.9716 142.839 15.5183 142.839C16.0651 142.839 16.5083 143.283 16.5083 143.831V173.589C16.5083 174.137 16.0651 174.581 15.5183 174.581C14.9716 174.581 14.5284 174.137 14.5284 173.589V143.831Z" fill="white" fill-opacity="0.6"/>
<path d="M0.989957 159.335C0.443219 159.335 0 158.891 0 158.344C0 157.796 0.443219 157.352 0.989957 157.352H30.6887C31.2354 157.352 31.6786 157.796 31.6786 158.344C31.6786 158.891 31.2354 159.335 30.6887 159.335H0.989957Z" fill="white" fill-opacity="0.6"/>
<path d="M84.9445 143.831C84.9445 143.283 85.3877 142.839 85.9344 142.839C86.4812 142.839 86.9244 143.283 86.9244 143.831V173.589C86.9244 174.137 86.4812 174.581 85.9344 174.581C85.3877 174.581 84.9445 174.137 84.9445 173.589V143.831Z" fill="white" fill-opacity="0.6"/>
<path d="M71.406 159.335C70.8593 159.335 70.4161 158.891 70.4161 158.344C70.4161 157.796 70.8593 157.352 71.406 157.352H101.105C101.651 157.352 102.095 157.796 102.095 158.344C102.095 158.891 101.651 159.335 101.105 159.335H71.406Z" fill="white" fill-opacity="0.6"/>
<path d="M155.361 143.831C155.361 143.283 155.804 142.839 156.35 142.839C156.897 142.839 157.34 143.283 157.34 143.831V173.589C157.34 174.137 156.897 174.581 156.35 174.581C155.804 174.581 155.361 174.137 155.361 173.589V143.831Z" fill="white" fill-opacity="0.2"/>
<path d="M141.822 159.335C141.275 159.335 140.832 158.891 140.832 158.344C140.832 157.796 141.275 157.352 141.822 157.352H171.521C172.068 157.352 172.511 157.796 172.511 158.344C172.511 158.891 172.068 159.335 171.521 159.335H141.822Z" fill="white" fill-opacity="0.2"/>
<path d="M225.777 143.831C225.777 143.283 226.22 142.839 226.767 142.839C227.313 142.839 227.757 143.283 227.757 143.831V173.589C227.757 174.137 227.313 174.581 226.767 174.581C226.22 174.581 225.777 174.137 225.777 173.589V143.831Z" fill="white" fill-opacity="0.6"/>
<path d="M212.238 159.335C211.691 159.335 211.248 158.891 211.248 158.344C211.248 157.796 211.691 157.352 212.238 157.352H241.937C242.484 157.352 242.927 157.796 242.927 158.344C242.927 158.891 242.484 159.335 241.937 159.335H212.238Z" fill="white" fill-opacity="0.6"/>
<path d="M295.524 144.823C295.524 143.727 296.41 142.839 297.504 142.839C298.597 142.839 299.483 143.727 299.483 144.823V172.597C299.483 173.692 298.597 174.581 297.504 174.581C296.41 174.581 295.524 173.692 295.524 172.597V144.823Z" fill="white" fill-opacity="0.8"/>
<path d="M283.644 160.694C282.551 160.694 281.664 159.805 281.664 158.71C281.664 157.614 282.551 156.726 283.644 156.726H311.363C312.456 156.726 313.343 157.614 313.343 158.71C313.343 159.805 312.456 160.694 311.363 160.694H283.644Z" fill="white" fill-opacity="0.8"/>
<path d="M366.609 143.831C366.609 143.283 367.052 142.839 367.599 142.839C368.145 142.839 368.589 143.283 368.589 143.831V173.589C368.589 174.137 368.145 174.581 367.599 174.581C367.052 174.581 366.609 174.137 366.609 173.589V143.831Z" fill="white" fill-opacity="0.6"/>
<path d="M353.07 159.335C352.524 159.335 352.08 158.891 352.08 158.344C352.08 157.796 352.524 157.352 353.07 157.352H382.769C383.316 157.352 383.759 157.796 383.759 158.344C383.759 158.891 383.316 159.335 382.769 159.335H353.07Z" fill="white" fill-opacity="0.6"/>
<path d="M437.025 143.831C437.025 143.283 437.468 142.839 438.015 142.839C438.561 142.839 439.005 143.283 439.005 143.831V173.589C439.005 174.137 438.561 174.581 438.015 174.581C437.468 174.581 437.025 174.137 437.025 173.589V143.831Z" fill="white" fill-opacity="0.6"/>
<path d="M423.486 159.335C422.94 159.335 422.496 158.891 422.496 158.344C422.496 157.796 422.94 157.352 423.486 157.352H453.185C453.732 157.352 454.175 157.796 454.175 158.344C454.175 158.891 453.732 159.335 453.185 159.335H423.486Z" fill="white" fill-opacity="0.6"/>
<path d="M507.441 143.831C507.441 143.283 507.884 142.839 508.431 142.839C508.978 142.839 509.421 143.283 509.421 143.831V173.589C509.421 174.137 508.978 174.581 508.431 174.581C507.884 174.581 507.441 174.137 507.441 173.589V143.831Z" fill="white" fill-opacity="0.6"/>
<path d="M493.902 159.335C493.356 159.335 492.912 158.891 492.912 158.344C492.912 157.796 493.356 157.352 493.902 157.352H523.601C524.148 157.352 524.591 157.796 524.591 158.344C524.591 158.891 524.148 159.335 523.601 159.335H493.902Z" fill="white" fill-opacity="0.6"/>
<path d="M577.857 143.831C577.857 143.283 578.3 142.839 578.847 142.839C579.394 142.839 579.837 143.283 579.837 143.831V173.589C579.837 174.137 579.394 174.581 578.847 174.581C578.3 174.581 577.857 174.137 577.857 173.589V143.831Z" fill="white" fill-opacity="0.6"/>
<path d="M564.318 159.335C563.772 159.335 563.329 158.891 563.329 158.344C563.329 157.796 563.772 157.352 564.318 157.352H594.017C594.564 157.352 595.007 157.796 595.007 158.344C595.007 158.891 594.564 159.335 594.017 159.335H564.318Z" fill="white" fill-opacity="0.6"/>
<path d="M648.273 143.831C648.273 143.283 648.716 142.839 649.263 142.839C649.81 142.839 650.253 143.283 650.253 143.831V173.589C650.253 174.137 649.81 174.581 649.263 174.581C648.716 174.581 648.273 174.137 648.273 173.589V143.831Z" fill="white" fill-opacity="0.6"/>
<path d="M634.735 159.335C634.188 159.335 633.745 158.891 633.745 158.344C633.745 157.796 634.188 157.352 634.735 157.352H664.433C664.98 157.352 665.423 157.796 665.423 158.344C665.423 158.891 664.98 159.335 664.433 159.335H634.735Z" fill="white" fill-opacity="0.6"/>
<path d="M718.689 143.831C718.689 143.283 719.132 142.839 719.679 142.839C720.226 142.839 720.669 143.283 720.669 143.831V173.589C720.669 174.137 720.226 174.581 719.679 174.581C719.132 174.581 718.689 174.137 718.689 173.589V143.831Z" fill="white" fill-opacity="0.6"/>
<path d="M705.151 159.335C704.604 159.335 704.161 158.891 704.161 158.344C704.161 157.796 704.604 157.352 705.151 157.352H734.849C735.396 157.352 735.839 157.796 735.839 158.344C735.839 158.891 735.396 159.335 734.849 159.335H705.151Z" fill="white" fill-opacity="0.6"/>
<path d="M789.105 143.831C789.105 143.283 789.548 142.839 790.095 142.839C790.642 142.839 791.085 143.283 791.085 143.831V173.589C791.085 174.137 790.642 174.581 790.095 174.581C789.548 174.581 789.105 174.137 789.105 173.589V143.831Z" fill="white" fill-opacity="0.2"/>
<path d="M775.567 159.335C775.02 159.335 774.577 158.891 774.577 158.344C774.577 157.796 775.02 157.352 775.567 157.352H805.265C805.812 157.352 806.255 157.796 806.255 158.344C806.255 158.891 805.812 159.335 805.265 159.335H775.567Z" fill="white" fill-opacity="0.2"/>
<path d="M859.521 143.831C859.521 143.283 859.964 142.839 860.511 142.839C861.058 142.839 861.501 143.283 861.501 143.831V173.589C861.501 174.137 861.058 174.581 860.511 174.581C859.964 174.581 859.521 174.137 859.521 173.589V143.831Z" fill="white" fill-opacity="0.6"/>
<path d="M845.983 159.335C845.436 159.335 844.993 158.891 844.993 158.344C844.993 157.796 845.436 157.352 845.983 157.352H875.681C876.228 157.352 876.671 157.796 876.671 158.344C876.671 158.891 876.228 159.335 875.681 159.335H845.983Z" fill="white" fill-opacity="0.6"/>
<path d="M929.937 143.831C929.937 143.283 930.38 142.839 930.927 142.839C931.474 142.839 931.917 143.283 931.917 143.831V173.589C931.917 174.137 931.474 174.581 930.927 174.581C930.38 174.581 929.937 174.137 929.937 173.589V143.831Z" fill="white" fill-opacity="0.6"/>
<path d="M916.399 159.335C915.852 159.335 915.409 158.891 915.409 158.344C915.409 157.796 915.852 157.352 916.399 157.352H946.098C946.644 157.352 947.088 157.796 947.088 158.344C947.088 158.891 946.644 159.335 946.098 159.335H916.399Z" fill="white" fill-opacity="0.6"/>
<path d="M1000.35 143.831C1000.35 143.283 1000.8 142.839 1001.34 142.839C1001.89 142.839 1002.33 143.283 1002.33 143.831V173.589C1002.33 174.137 1001.89 174.581 1001.34 174.581C1000.8 174.581 1000.35 174.137 1000.35 173.589V143.831Z" fill="white" fill-opacity="0.6"/>
<path d="M986.815 159.335C986.268 159.335 985.825 158.891 985.825 158.344C985.825 157.796 986.268 157.352 986.815 157.352H1016.51C1017.06 157.352 1017.5 157.796 1017.5 158.344C1017.5 158.891 1017.06 159.335 1016.51 159.335H986.815Z" fill="white" fill-opacity="0.6"/>
<path d="M1070.77 143.831C1070.77 143.283 1071.21 142.839 1071.76 142.839C1072.31 142.839 1072.75 143.283 1072.75 143.831V173.589C1072.75 174.137 1072.31 174.581 1071.76 174.581C1071.21 174.581 1070.77 174.137 1070.77 173.589V143.831Z" fill="white" fill-opacity="0.6"/>
<path d="M1057.23 159.335C1056.68 159.335 1056.24 158.891 1056.24 158.344C1056.24 157.796 1056.68 157.352 1057.23 157.352H1086.93C1087.48 157.352 1087.92 157.796 1087.92 158.344C1087.92 158.891 1087.48 159.335 1086.93 159.335H1057.23Z" fill="white" fill-opacity="0.6"/>
<path d="M1141.19 143.831C1141.19 143.283 1141.63 142.839 1142.18 142.839C1142.72 142.839 1143.17 143.283 1143.17 143.831V173.589C1143.17 174.137 1142.72 174.581 1142.18 174.581C1141.63 174.581 1141.19 174.137 1141.19 173.589V143.831Z" fill="white" fill-opacity="0.6"/>
<path d="M1127.65 159.335C1127.1 159.335 1126.66 158.891 1126.66 158.344C1126.66 157.796 1127.1 157.352 1127.65 157.352H1157.35C1157.89 157.352 1158.34 157.796 1158.34 158.344C1158.34 158.891 1157.89 159.335 1157.35 159.335H1127.65Z" fill="white" fill-opacity="0.6"/>
<path d="M1211.6 143.831C1211.6 143.283 1212.04 142.839 1212.59 142.839C1213.14 142.839 1213.58 143.283 1213.58 143.831V173.589C1213.58 174.137 1213.14 174.581 1212.59 174.581C1212.04 174.581 1211.6 174.137 1211.6 173.589V143.831Z" fill="white" fill-opacity="0.6"/>
<path d="M1198.06 159.335C1197.52 159.335 1197.07 158.891 1197.07 158.344C1197.07 157.796 1197.52 157.352 1198.06 157.352H1227.76C1228.31 157.352 1228.75 157.796 1228.75 158.344C1228.75 158.891 1228.31 159.335 1227.76 159.335H1198.06Z" fill="white" fill-opacity="0.6"/>
<path d="M1282.02 143.831C1282.02 143.283 1282.46 142.839 1283.01 142.839C1283.55 142.839 1284 143.283 1284 143.831V173.589C1284 174.137 1283.55 174.581 1283.01 174.581C1282.46 174.581 1282.02 174.137 1282.02 173.589V143.831Z" fill="white" fill-opacity="0.6"/>
<path d="M1268.48 159.335C1267.93 159.335 1267.49 158.891 1267.49 158.344C1267.49 157.796 1267.93 157.352 1268.48 157.352H1298.18C1298.72 157.352 1299.17 157.796 1299.17 158.344C1299.17 158.891 1298.72 159.335 1298.18 159.335H1268.48Z" fill="white" fill-opacity="0.6"/>
<path d="M1352.43 143.831C1352.43 143.283 1352.88 142.839 1353.42 142.839C1353.97 142.839 1354.41 143.283 1354.41 143.831V173.589C1354.41 174.137 1353.97 174.581 1353.42 174.581C1352.88 174.581 1352.43 174.137 1352.43 173.589V143.831Z" fill="white" fill-opacity="0.2"/>
<path d="M1338.9 159.335C1338.35 159.335 1337.91 158.891 1337.91 158.344C1337.91 157.796 1338.35 157.352 1338.9 157.352H1368.59C1369.14 157.352 1369.58 157.796 1369.58 158.344C1369.58 158.891 1369.14 159.335 1368.59 159.335H1338.9Z" fill="white" fill-opacity="0.2"/>
<path d="M1422.85 143.831C1422.85 143.283 1423.29 142.839 1423.84 142.839C1424.39 142.839 1424.83 143.283 1424.83 143.831V173.589C1424.83 174.137 1424.39 174.581 1423.84 174.581C1423.29 174.581 1422.85 174.137 1422.85 173.589V143.831Z" fill="white" fill-opacity="0.6"/>
<path d="M1409.31 159.335C1408.76 159.335 1408.32 158.891 1408.32 158.344C1408.32 157.796 1408.76 157.352 1409.31 157.352H1439.01C1439.56 157.352 1440 157.796 1440 158.344C1440 158.891 1439.56 159.335 1439.01 159.335H1409.31Z" fill="white" fill-opacity="0.6"/>
<path d="M1425.47 215.25C1425.47 214.702 1425.03 214.258 1424.48 214.258C1423.93 214.258 1423.49 214.702 1423.49 215.25V245.008C1423.49 245.556 1423.93 246 1424.48 246C1425.03 246 1425.47 245.556 1425.47 245.008V215.25Z" fill="white" fill-opacity="0.6"/>
<path d="M1439.01 230.755C1439.56 230.755 1440 230.311 1440 229.763C1440 229.215 1439.56 228.771 1439.01 228.771H1409.31C1408.76 228.771 1408.32 229.215 1408.32 229.763C1408.32 230.311 1408.76 230.755 1409.31 230.755H1439.01Z" fill="white" fill-opacity="0.6"/>
<path d="M1355.06 215.25C1355.06 214.702 1354.61 214.258 1354.07 214.258C1353.52 214.258 1353.08 214.702 1353.08 215.25V245.008C1353.08 245.556 1353.52 246 1354.07 246C1354.61 246 1355.06 245.556 1355.06 245.008V215.25Z" fill="white" fill-opacity="0.6"/>
<path d="M1368.59 230.755C1369.14 230.755 1369.58 230.311 1369.58 229.763C1369.58 229.215 1369.14 228.771 1368.59 228.771H1338.9C1338.35 228.771 1337.91 229.215 1337.91 229.763C1337.91 230.311 1338.35 230.755 1338.9 230.755H1368.59Z" fill="white" fill-opacity="0.6"/>
<path d="M1284.64 215.25C1284.64 214.702 1284.2 214.258 1283.65 214.258C1283.1 214.258 1282.66 214.702 1282.66 215.25V245.008C1282.66 245.556 1283.1 246 1283.65 246C1284.2 246 1284.64 245.556 1284.64 245.008V215.25Z" fill="white" fill-opacity="0.6"/>
<path d="M1298.18 230.755C1298.72 230.755 1299.17 230.311 1299.17 229.763C1299.17 229.215 1298.72 228.771 1298.18 228.771H1268.48C1267.93 228.771 1267.49 229.215 1267.49 229.763C1267.49 230.311 1267.93 230.755 1268.48 230.755H1298.18Z" fill="white" fill-opacity="0.6"/>
<path d="M1214.22 215.25C1214.22 214.702 1213.78 214.258 1213.23 214.258C1212.69 214.258 1212.24 214.702 1212.24 215.25V245.008C1212.24 245.556 1212.69 246 1213.23 246C1213.78 246 1214.22 245.556 1214.22 245.008V215.25Z" fill="white" fill-opacity="0.6"/>
<path d="M1227.76 230.755C1228.31 230.755 1228.75 230.311 1228.75 229.763C1228.75 229.215 1228.31 228.771 1227.76 228.771H1198.06C1197.52 228.771 1197.07 229.215 1197.07 229.763C1197.07 230.311 1197.52 230.755 1198.06 230.755H1227.76Z" fill="white" fill-opacity="0.6"/>
<path d="M1144.48 216.242C1144.48 215.146 1143.59 214.258 1142.5 214.258C1141.4 214.258 1140.52 215.146 1140.52 216.242V244.016C1140.52 245.112 1141.4 246 1142.5 246C1143.59 246 1144.48 245.112 1144.48 244.016V216.242Z" fill="white" fill-opacity="0.8"/>
<path d="M1156.36 232.113C1157.45 232.113 1158.34 231.225 1158.34 230.129C1158.34 229.033 1157.45 228.145 1156.36 228.145H1128.64C1127.54 228.145 1126.66 229.033 1126.66 230.129C1126.66 231.225 1127.54 232.113 1128.64 232.113H1156.36Z" fill="white" fill-opacity="0.8"/>
<path d="M1073.39 215.25C1073.39 214.702 1072.95 214.258 1072.4 214.258C1071.85 214.258 1071.41 214.702 1071.41 215.25V245.008C1071.41 245.556 1071.85 246 1072.4 246C1072.95 246 1073.39 245.556 1073.39 245.008V215.25Z" fill="white" fill-opacity="0.6"/>
<path d="M1086.93 230.755C1087.48 230.755 1087.92 230.311 1087.92 229.763C1087.92 229.215 1087.48 228.771 1086.93 228.771H1057.23C1056.68 228.771 1056.24 229.215 1056.24 229.763C1056.24 230.311 1056.68 230.755 1057.23 230.755H1086.93Z" fill="white" fill-opacity="0.6"/>
<path d="M1002.98 215.25C1002.98 214.702 1002.53 214.258 1001.99 214.258C1001.44 214.258 1001 214.702 1001 215.25V245.008C1001 245.556 1001.44 246 1001.99 246C1002.53 246 1002.98 245.556 1002.98 245.008V215.25Z" fill="white" fill-opacity="0.6"/>
<path d="M1016.51 230.755C1017.06 230.755 1017.5 230.311 1017.5 229.763C1017.5 229.215 1017.06 228.771 1016.51 228.771H986.815C986.268 228.771 985.825 229.215 985.825 229.763C985.825 230.311 986.268 230.755 986.815 230.755H1016.51Z" fill="white" fill-opacity="0.6"/>
<path d="M932.559 215.25C932.559 214.702 932.116 214.258 931.569 214.258C931.022 214.258 930.579 214.702 930.579 215.25V245.008C930.579 245.556 931.022 246 931.569 246C932.116 246 932.559 245.556 932.559 245.008V215.25Z" fill="white" fill-opacity="0.6"/>
<path d="M946.098 230.755C946.644 230.755 947.088 230.311 947.088 229.763C947.088 229.215 946.644 228.771 946.098 228.771H916.399C915.852 228.771 915.409 229.215 915.409 229.763C915.409 230.311 915.852 230.755 916.399 230.755H946.098Z" fill="white" fill-opacity="0.6"/>
<path d="M862.143 215.25C862.143 214.702 861.7 214.258 861.153 214.258C860.606 214.258 860.163 214.702 860.163 215.25V245.008C860.163 245.556 860.606 246 861.153 246C861.7 246 862.143 245.556 862.143 245.008V215.25Z" fill="white" fill-opacity="0.6"/>
<path d="M875.681 230.755C876.228 230.755 876.671 230.311 876.671 229.763C876.671 229.215 876.228 228.771 875.681 228.771H845.983C845.436 228.771 844.993 229.215 844.993 229.763C844.993 230.311 845.436 230.755 845.983 230.755H875.681Z" fill="white" fill-opacity="0.6"/>
<path d="M791.727 215.25C791.727 214.702 791.284 214.258 790.737 214.258C790.19 214.258 789.747 214.702 789.747 215.25V245.008C789.747 245.556 790.19 246 790.737 246C791.284 246 791.727 245.556 791.727 245.008V215.25Z" fill="white" fill-opacity="0.6"/>
<path d="M805.265 230.755C805.812 230.755 806.255 230.311 806.255 229.763C806.255 229.215 805.812 228.771 805.265 228.771H775.567C775.02 228.771 774.577 229.215 774.577 229.763C774.577 230.311 775.02 230.755 775.567 230.755H805.265Z" fill="white" fill-opacity="0.6"/>
<path d="M721.311 215.25C721.311 214.702 720.868 214.258 720.321 214.258C719.774 214.258 719.331 214.702 719.331 215.25V245.008C719.331 245.556 719.774 246 720.321 246C720.868 246 721.311 245.556 721.311 245.008V215.25Z" fill="white" fill-opacity="0.6"/>
<path d="M734.849 230.755C735.396 230.755 735.839 230.311 735.839 229.763C735.839 229.215 735.396 228.771 734.849 228.771H705.151C704.604 228.771 704.161 229.215 704.161 229.763C704.161 230.311 704.604 230.755 705.151 230.755H734.849Z" fill="white" fill-opacity="0.6"/>
<path d="M650.895 215.25C650.895 214.702 650.452 214.258 649.905 214.258C649.358 214.258 648.915 214.702 648.915 215.25V245.008C648.915 245.556 649.358 246 649.905 246C650.452 246 650.895 245.556 650.895 245.008V215.25Z" fill="white" fill-opacity="0.6"/>
<path d="M664.433 230.755C664.98 230.755 665.423 230.311 665.423 229.763C665.423 229.215 664.98 228.771 664.433 228.771H634.735C634.188 228.771 633.745 229.215 633.745 229.763C633.745 230.311 634.188 230.755 634.735 230.755H664.433Z" fill="white" fill-opacity="0.6"/>
<path d="M580.479 215.25C580.479 214.702 580.036 214.258 579.489 214.258C578.942 214.258 578.499 214.702 578.499 215.25V245.008C578.499 245.556 578.942 246 579.489 246C580.036 246 580.479 245.556 580.479 245.008V215.25Z" fill="white" fill-opacity="0.6"/>
<path d="M594.017 230.755C594.564 230.755 595.007 230.311 595.007 229.763C595.007 229.215 594.564 228.771 594.017 228.771H564.318C563.772 228.771 563.329 229.215 563.329 229.763C563.329 230.311 563.772 230.755 564.318 230.755H594.017Z" fill="white" fill-opacity="0.6"/>
<path d="M510.063 215.25C510.063 214.702 509.619 214.258 509.073 214.258C508.526 214.258 508.083 214.702 508.083 215.25V245.008C508.083 245.556 508.526 246 509.073 246C509.619 246 510.063 245.556 510.063 245.008V215.25Z" fill="white" fill-opacity="0.6"/>
<path d="M523.601 230.755C524.148 230.755 524.591 230.311 524.591 229.763C524.591 229.215 524.148 228.771 523.601 228.771H493.902C493.356 228.771 492.913 229.215 492.913 229.763C492.913 230.311 493.356 230.755 493.902 230.755H523.601Z" fill="white" fill-opacity="0.6"/>
<path d="M439.647 215.25C439.647 214.702 439.203 214.258 438.657 214.258C438.11 214.258 437.667 214.702 437.667 215.25V245.008C437.667 245.556 438.11 246 438.657 246C439.203 246 439.647 245.556 439.647 245.008V215.25Z" fill="white" fill-opacity="0.6"/>
<path d="M453.185 230.755C453.732 230.755 454.175 230.311 454.175 229.763C454.175 229.215 453.732 228.771 453.185 228.771H423.486C422.94 228.771 422.496 229.215 422.496 229.763C422.496 230.311 422.94 230.755 423.486 230.755H453.185Z" fill="white" fill-opacity="0.6"/>
<path d="M369.231 215.25C369.231 214.702 368.787 214.258 368.241 214.258C367.694 214.258 367.251 214.702 367.251 215.25V245.008C367.251 245.556 367.694 246 368.241 246C368.787 246 369.231 245.556 369.231 245.008V215.25Z" fill="white" fill-opacity="0.6"/>
<path d="M382.769 230.755C383.316 230.755 383.759 230.311 383.759 229.763C383.759 229.215 383.316 228.771 382.769 228.771H353.07C352.524 228.771 352.08 229.215 352.08 229.763C352.08 230.311 352.524 230.755 353.07 230.755H382.769Z" fill="white" fill-opacity="0.6"/>
<path d="M298.815 215.25C298.815 214.702 298.371 214.258 297.825 214.258C297.278 214.258 296.835 214.702 296.835 215.25V245.008C296.835 245.556 297.278 246 297.825 246C298.371 246 298.815 245.556 298.815 245.008V215.25Z" fill="white" fill-opacity="0.6"/>
<path d="M312.353 230.755C312.9 230.755 313.343 230.311 313.343 229.763C313.343 229.215 312.9 228.771 312.353 228.771H282.654C282.108 228.771 281.664 229.215 281.664 229.763C281.664 230.311 282.108 230.755 282.654 230.755H312.353Z" fill="white" fill-opacity="0.6"/>
<path d="M228.399 215.25C228.399 214.702 227.955 214.258 227.409 214.258C226.862 214.258 226.419 214.702 226.419 215.25V245.008C226.419 245.556 226.862 246 227.409 246C227.955 246 228.399 245.556 228.399 245.008V215.25Z" fill="white" fill-opacity="0.6"/>
<path d="M241.937 230.755C242.484 230.755 242.927 230.311 242.927 229.763C242.927 229.215 242.484 228.771 241.937 228.771H212.238C211.692 228.771 211.248 229.215 211.248 229.763C211.248 230.311 211.692 230.755 212.238 230.755H241.937Z" fill="white" fill-opacity="0.6"/>
<path d="M157.983 215.25C157.983 214.702 157.539 214.258 156.993 214.258C156.446 214.258 156.003 214.702 156.003 215.25V245.008C156.003 245.556 156.446 246 156.993 246C157.539 246 157.983 245.556 157.983 245.008V215.25Z" fill="white" fill-opacity="0.6"/>
<path d="M171.521 230.755C172.068 230.755 172.511 230.311 172.511 229.763C172.511 229.215 172.068 228.771 171.521 228.771H141.822C141.275 228.771 140.832 229.215 140.832 229.763C140.832 230.311 141.275 230.755 141.822 230.755H171.521Z" fill="white" fill-opacity="0.6"/>
<path d="M87.5665 215.25C87.5665 214.702 87.1233 214.258 86.5766 214.258C86.0298 214.258 85.5866 214.702 85.5866 215.25V245.008C85.5866 245.556 86.0298 246 86.5766 246C87.1233 246 87.5665 245.556 87.5665 245.008V215.25Z" fill="white" fill-opacity="0.6"/>
<path d="M101.105 230.755C101.652 230.755 102.095 230.311 102.095 229.763C102.095 229.215 101.652 228.771 101.105 228.771H71.4062C70.8595 228.771 70.4163 229.215 70.4163 229.763C70.4163 230.311 70.8595 230.755 71.4062 230.755H101.105Z" fill="white" fill-opacity="0.6"/>
<path d="M17.1505 215.25C17.1505 214.702 16.7073 214.258 16.1605 214.258C15.6138 214.258 15.1706 214.702 15.1706 215.25V245.008C15.1706 245.556 15.6138 246 16.1605 246C16.7073 246 17.1505 245.556 17.1505 245.008V215.25Z" fill="white" fill-opacity="0.6"/>
<path d="M30.6889 230.755C31.2357 230.755 31.6789 230.311 31.6789 229.763C31.6789 229.215 31.2357 228.771 30.6889 228.771H0.990229C0.443491 228.771 0.0002719 229.215 0.0002719 229.763C0.0002719 230.311 0.443491 230.755 0.990229 230.755H30.6889Z" fill="white" fill-opacity="0.6"/>
</g>
</svg>
