<svg width="28" height="36" viewBox="0 0 28 36" fill="none" xmlns="http://www.w3.org/2000/svg">
<rect x="24" y="16" width="4" height="4" fill="#FFDD00"/>
<rect x="20" y="16" width="4" height="4" fill="#FFDD00"/>
<rect x="16" y="16" width="4" height="4" fill="#FFDD00"/>
<rect x="12" y="16" width="4" height="4" fill="#FFDD00"/>
<rect x="8" y="16" width="4" height="4" fill="#FFDD00"/>
<rect x="4" y="16" width="4" height="4" fill="#FFDD00"/>
<rect y="16" width="4" height="4" fill="#FFDD00"/>
<rect x="16" y="4" width="4" height="4" fill="#FFDD00"/>
<rect x="20" y="4" width="4" height="4" fill="#FFDD00"/>
<rect x="24" width="4" height="4" fill="#FFDD00"/>
<rect x="12" y="8" width="4" height="4" fill="#FFDD00"/>
<rect x="16" y="8" width="4" height="4" fill="#FFDD00"/>
<rect x="4" y="12" width="4" height="4" fill="#FFDD00"/>
<rect x="24" y="20" width="4" height="4" fill="#FFDD00"/>
<rect x="16" y="24" width="4" height="4" fill="#FFDD00"/>
<rect x="16" y="20" width="4" height="4" fill="#FFDD00"/>
<rect x="12" y="20" width="4" height="4" fill="#FFDD00"/>
<rect x="8" y="28" width="4" height="4" fill="#FFDD00"/>
<rect x="8" y="8" width="4" height="4" fill="#FFDD00"/>
<rect x="8" y="12" width="4" height="4" fill="#FFDD00"/>
<rect x="12" y="12" width="4" height="4" fill="#FFDD00"/>
<rect y="12" width="4" height="4" fill="#FFDD00"/>
<rect x="20" y="20" width="4" height="4" fill="#FFDD00"/>
<rect x="12" y="24" width="4" height="4" fill="#FFDD00"/>
<rect x="8" y="24" width="4" height="4" fill="#FFDD00"/>
<rect x="4" y="28" width="4" height="4" fill="#FFDD00"/>
<rect y="32" width="4" height="4" fill="#FFDD00"/>
</svg>
