<svg width="24" height="24" viewBox="0 0 24 24" fill="none" xmlns="http://www.w3.org/2000/svg">
<path d="M21.75 3H23.25V6H22.5V10.5H21.75V15H21V19.5H20.25V21H17.25V20.25H15.75V19.5H14.25V18.75H12.75V18H11.25V17.25H9.75V15.75H10.5V15H11.25V14.25H12V13.5H12.75V12.75H13.5V12H14.25V11.25H15V10.5H15.75V9.75H14.25V10.5H12.75V11.25H11.25V12H9.75V12.75H8.25V13.5H6.75V14.25H4.5V13.5H3V12.75H1.5V12H0.75V10.5H2.25V9.75H4.5V9H6.75V8.25H9V7.5H11.25V6.75H13.5V6H15.75V5.25H18V4.5H20.25V3.75H21.75V3Z" fill="#00293F"/>
</svg>
